<?xml version="1.0" encoding="UTF-8"?>
<svg width="17px" height="19px" viewBox="0 0 17 19" version="1.1" xmlns="http://www.w3.org/2000/svg" xmlns:xlink="http://www.w3.org/1999/xlink">
    <!-- Generator: Sketch 53.2 (72643) - https://sketchapp.com -->
    <title>Combined Shape Copy</title>
    <desc>Created with Sketch.</desc>
    <g id="Page-1" stroke="none" stroke-width="1" fill="none" fill-rule="evenodd">
        <g id="03SignUp-Exp" transform="translate(-572.000000, -403.000000)" fill="#25DE8C">
            <g id="Group-21" transform="translate(378.000000, 225.000000)">
                <g id="Group-3" transform="translate(3.000000, 144.000000)">
                    <g id="Group-18" transform="translate(191.000000, 34.000000)">
                        <path d="M15.2937544,0 C16.0095439,0 16.5569123,0.580786026 16.5569123,1.24454148 L16.5569123,17.7554585 C16.5569123,18.4606987 16.0095439,19 15.2937544,19 L1.82007018,19 C1.1042807,19 0.556912281,18.4606987 0.556912281,17.7554585 L0.556912281,1.24454148 C0.556912281,0.53930131 1.1042807,0 1.82007018,0 L15.2937544,0 Z M15.714807,17.7554585 L15.714807,1.24454148 C15.714807,0.995633188 15.5042807,0.829694323 15.2937544,0.829694323 L1.82007018,0.829694323 C1.60954386,0.829694323 1.39901754,0.995633188 1.39901754,1.24454148 L1.39901754,17.7554585 C1.39901754,18.0043668 1.60954386,18.1703057 1.82007018,18.1703057 L15.2937544,18.1703057 C15.5042807,18.1703057 15.714807,18.0043668 15.714807,17.7554585 Z M10.9319123,6.16859345 C11.4735789,6.16859345 11.8902456,6.57129094 11.8902456,7.09479769 L11.8902456,8.46396917 C11.8902456,8.66531792 11.6819123,8.86666667 11.4735789,8.86666667 C11.2652456,8.86666667 11.0569123,8.66531792 11.0569123,8.46396917 L11.0569123,7.09479769 C11.0569123,7.01425819 11.0152456,6.97398844 10.9319123,6.97398844 L6.18191228,6.97398844 C6.09857895,6.97398844 6.05691228,7.01425819 6.05691228,7.09479769 L6.05691228,8.46396917 C6.05691228,8.66531792 5.84857895,8.86666667 5.64024561,8.86666667 C5.43191228,8.86666667 5.22357895,8.66531792 5.22357895,8.46396917 L5.22357895,7.09479769 C5.22357895,6.57129094 5.64024561,6.16859345 6.18191228,6.16859345 L6.64024561,6.16859345 C6.18191228,5.7256262 5.93191228,5.08131021 5.93191228,4.43699422 C5.93191228,3.02755299 7.09857895,1.9 8.55691228,1.9 C10.0152456,1.9 11.1819123,3.06782274 11.1819123,4.43699422 C11.1819123,5.12157996 10.8902456,5.7256262 10.4735789,6.16859345 L10.9319123,6.16859345 Z M6.80691228,4.43699422 C6.80691228,5.36319846 7.59857895,6.16859345 8.59857895,6.16859345 C9.59857895,6.16859345 10.3902456,5.36319846 10.3902456,4.43699422 C10.3902456,3.47052023 9.59857895,2.70539499 8.59857895,2.70539499 C7.59857895,2.70539499 6.80691228,3.51078998 6.80691228,4.43699422 Z M14.1308471,10.7666667 L3.64964411,10.7666667 C3.39400501,10.7666667 3.22357895,10.64 3.22357895,10.45 C3.22357895,10.26 3.39400501,10.1333333 3.64964411,10.1333333 L14.1308471,10.1333333 C14.3864862,10.1333333 14.5569123,10.26 14.5569123,10.45 C14.5569123,10.64 14.3864862,10.7666667 14.1308471,10.7666667 Z M14.0639526,12.5463704 L3.58274958,12.5463704 C3.32711048,12.5463704 3.15668442,12.4197038 3.15668442,12.2297038 C3.15668442,12.0397038 3.32711048,11.9130371 3.58274958,11.9130371 L14.0639526,11.9130371 C14.3195917,11.9130371 14.4900177,12.0397038 14.4900177,12.2297038 C14.4900177,12.4197038 14.3195917,12.5463704 14.0639526,12.5463704 Z M14.0919474,14.2179932 L3.61074437,14.2179932 C3.35510527,14.2179932 3.18467921,14.0913265 3.18467921,13.9013265 C3.18467921,13.7113265 3.35510527,13.5846598 3.61074437,13.5846598 L14.0919474,13.5846598 C14.3475865,13.5846598 14.5180125,13.7113265 14.5180125,13.9013265 C14.5180125,14.0913265 14.3475865,14.2179932 14.0919474,14.2179932 Z M14.1308471,15.8333333 L3.64964411,15.8333333 C3.39400501,15.8333333 3.22357895,15.7066667 3.22357895,15.5166667 C3.22357895,15.3266667 3.39400501,15.2 3.64964411,15.2 L14.1308471,15.2 C14.3864862,15.2 14.5569123,15.3266667 14.5569123,15.5166667 C14.5569123,15.7066667 14.3864862,15.8333333 14.1308471,15.8333333 Z" id="Combined-Shape-Copy"></path>
                    </g>
                </g>
            </g>
        </g>
    </g>
</svg>