<?xml version="1.0" encoding="UTF-8"?>
<svg width="13px" height="13px" viewBox="0 0 13 13" version="1.1" xmlns="http://www.w3.org/2000/svg" xmlns:xlink="http://www.w3.org/1999/xlink">
    <!-- Generator: Sketch 53.2 (72643) - https://sketchapp.com -->
    <title>Combined Shape</title>
    <desc>Created with Sketch.</desc>
    <g id="Page-1" stroke="none" stroke-width="1" fill="none" fill-rule="evenodd">
        <g id="01-PJ-Search" transform="translate(-645.000000, -688.000000)" fill="#6C7786" fill-rule="nonzero">
            <g id="Stacked-Group" transform="translate(140.000000, 483.000000)">
                <g id="Search-list-1-Copy-6" transform="translate(2.000000, 129.000000)">
                    <g id="Group-2-Copy" transform="translate(503.000000, 72.000000)">
                        <path d="M6.7402226,15.0495225 C9.45143864,15.0495225 11.6493135,12.8516477 11.6493135,10.1404316 C11.6493135,7.42921557 9.45143864,5.23134071 6.7402226,5.23134071 C4.02900655,5.23134071 1.83113169,7.42921557 1.83113169,10.1404316 C1.83113169,12.8516477 4.02900655,15.0495225 6.7402226,15.0495225 Z M6.7402226,16.1404316 C3.4265141,16.1404316 0.740222595,13.4541401 0.740222595,10.1404316 C0.740222595,6.82672312 3.4265141,4.14043162 6.7402226,4.14043162 C10.0539311,4.14043162 12.7402226,6.82672312 12.7402226,10.1404316 C12.7402226,13.4541401 10.0539311,16.1404316 6.7402226,16.1404316 Z M8.48401647,11.3070367 C8.72340431,11.4899103 8.76921816,11.8322208 8.58634457,12.0716086 C8.40347098,12.3109965 8.06116045,12.3568103 7.82177261,12.1739367 L6.05429622,10.823723 L6.05429622,8.00070419 C6.05429622,7.69945796 6.29850454,7.45524964 6.59975076,7.45524964 C6.90099699,7.45524964 7.14520531,7.69945796 7.14520531,8.00070419 L7.14520531,10.2842896 L8.48401647,11.3070367 Z" id="Combined-Shape"></path>
                    </g>
                </g>
            </g>
        </g>
    </g>
</svg>