<?xml version="1.0" encoding="UTF-8"?>
<svg width="12px" height="19px" viewBox="0 0 12 19" version="1.1" xmlns="http://www.w3.org/2000/svg" xmlns:xlink="http://www.w3.org/1999/xlink">
    <!-- Generator: Sketch 53.2 (72643) - https://sketchapp.com -->
    <title>$</title>
    <desc>Created with Sketch.</desc>
    <g id="Page-1" stroke="none" stroke-width="1" fill="none" fill-rule="evenodd">
        <g id="02-PJ-JobInfo" transform="translate(-208.000000, -301.000000)" fill="#00C87A">
            <path d="M216.486322,314.026288 C216.486322,313.480194 216.301927,313.045655 215.933131,312.72266 C215.564335,312.399665 214.938201,312.101649 214.054711,311.828601 C213.171222,311.555554 212.409324,311.284176 211.768997,311.014458 C211.12867,310.744741 210.579536,310.43507 210.121581,310.085436 C209.663625,309.735803 209.306992,309.324573 209.051672,308.851735 C208.796351,308.378897 208.668693,307.816162 208.668693,307.163512 C208.668693,306.038025 209.106379,305.115671 209.981763,304.396425 C210.857147,303.677178 212.020256,303.257624 213.471125,303.13775 L213.471125,301 L215.416413,301 L215.416413,303.167718 C216.851071,303.33421 217.973653,303.825355 218.784195,304.641167 C219.594736,305.456979 220,306.514189 220,307.812829 L216.486322,307.812829 C216.486322,307.013666 216.285716,306.415968 215.884498,306.019716 C215.483281,305.623465 214.946305,305.425342 214.273556,305.425342 C213.608913,305.425342 213.094227,305.580177 212.729483,305.889853 C212.36474,306.199528 212.182371,306.627407 212.182371,307.173502 C212.182371,307.679638 212.360687,308.085873 212.717325,308.392219 C213.073963,308.698564 213.736571,309.011565 214.705167,309.33123 C215.673764,309.650895 216.470108,309.952242 217.094225,310.235279 C217.718342,310.518315 218.245185,310.837976 218.674772,311.194269 C219.104359,311.550563 219.432623,311.956798 219.659574,312.412986 C219.886526,312.869175 220,313.400277 220,314.006309 C220,315.138456 219.57042,316.05748 218.711246,316.763407 C217.852073,317.469334 216.668701,317.885558 215.161094,318.012093 L215.161094,320 L213.227964,320 L213.227964,318.022082 C211.566354,317.875569 210.27964,317.391084 209.367781,316.568612 C208.455922,315.74614 208,314.652303 208,313.287066 L211.513678,313.287066 C211.513678,314.079569 211.742652,314.687257 212.200608,315.110147 C212.658564,315.533038 213.317118,315.744479 214.176292,315.744479 C214.889568,315.744479 215.452885,315.589644 215.866261,315.279968 C216.279637,314.970293 216.486322,314.552404 216.486322,314.026288 Z" id="$"></path>
        </g>
    </g>
</svg>