<?xml version="1.0" encoding="UTF-8"?>
<svg width="18px" height="19px" viewBox="0 0 18 19" version="1.1" xmlns="http://www.w3.org/2000/svg" xmlns:xlink="http://www.w3.org/1999/xlink">
    <!-- Generator: Sketch 53.2 (72643) - https://sketchapp.com -->
    <title></title>
    <desc>Created with Sketch.</desc>
    <g id="Page-1" stroke="none" stroke-width="1" fill="none" fill-rule="evenodd">
        <g id="02-PJ-JobInfo" transform="translate(-974.000000, -702.000000)" fill="#2E3D4E">
            <g id="Group-3" transform="translate(960.000000, 690.000000)">
                <path d="M31.75,14.625 L31.75,28.375 C31.75,28.8958359 31.5677102,29.3385398 31.203125,29.703125 C30.8385398,30.0677102 30.3958359,30.25 29.875,30.25 L26.5546875,30.25 L26.5546875,23.3359375 L28.8984375,23.3359375 L29.25,20.6796875 L26.5546875,20.6796875 L26.5546875,19 C26.5546875,18.7135402 26.5807289,18.4856779 26.6328125,18.3164062 C26.6848961,18.1471346 26.8151031,18.0039068 27.0234375,17.8867188 C27.2317719,17.7695307 27.5052066,17.7109375 27.84375,17.7109375 L29.25,17.7109375 L29.25,15.3671875 C28.7031223,15.2890621 28.0260457,15.25 27.21875,15.25 C26.1770781,15.25 25.3502635,15.5559865 24.7382812,16.1679688 C24.126299,16.779951 23.8203125,17.632807 23.8203125,18.7265625 L23.8203125,20.6796875 L21.4375,20.6796875 L21.4375,23.3359375 L23.8203125,23.3359375 L23.8203125,30.25 L16.125,30.25 C15.6041641,30.25 15.1614602,30.0677102 14.796875,29.703125 C14.4322898,29.3385398 14.25,28.8958359 14.25,28.375 L14.25,14.625 C14.25,14.1041641 14.4322898,13.6614602 14.796875,13.296875 C15.1614602,12.9322898 15.6041641,12.75 16.125,12.75 L29.875,12.75 C30.3958359,12.75 30.8385398,12.9322898 31.203125,13.296875 C31.5677102,13.6614602 31.75,14.1041641 31.75,14.625 Z" id=""></path>
            </g>
        </g>
    </g>
</svg>