<?xml version="1.0" encoding="UTF-8"?>
<svg width="15px" height="14px" viewBox="0 0 15 14" version="1.1" xmlns="http://www.w3.org/2000/svg" xmlns:xlink="http://www.w3.org/1999/xlink">
    <!-- Generator: Sketch 53.2 (72643) - https://sketchapp.com -->
    <title>Path</title>
    <desc>Created with Sketch.</desc>
    <g id="Page-1" stroke="none" stroke-width="1" fill="none" fill-rule="evenodd" opacity="0.415504092">
        <g id="10PostJob-2" transform="translate(-571.000000, -1000.000000)" fill="#2E3D4E">
            <g id="Group-11" transform="translate(517.000000, 964.000000)">
                <path d="M68.3834713,42.4604857 C68.3623502,42.4393646 68.3412291,42.3971224 68.2989869,42.3548802 L62.1738669,36.2297602 C61.8781715,35.9340648 61.3290228,35.9129437 61.0333274,36.2297602 C60.8854796,36.377608 60.8009952,36.588819 60.8009952,36.80003 C60.8009952,37.0112411 60.8854796,37.2224521 61.0333274,37.3702998 L65.7855756,42.122548 L54.8026019,42.122548 C54.3590588,42.122548 54,42.4816068 54,42.9251499 C54,43.3686931 54.3590588,43.7277519 54.8026019,43.7277519 L65.7644545,43.7277519 L61.0122063,48.4800001 C60.6953897,48.7968166 60.6953897,49.3037231 61.0122063,49.6205397 C61.160054,49.7683874 61.371265,49.8528718 61.582476,49.8528718 C61.7936871,49.8528718 62.0048981,49.7683874 62.1527458,49.6205397 L68.2778657,43.4954197 C68.320108,43.4531775 68.3623502,43.4109353 68.3623502,43.3686931 C68.3834713,43.347572 68.4257135,43.2842087 68.4468346,43.2208454 C68.4890768,43.1152399 68.5101979,43.0096344 68.5101979,42.9040288 C68.5101979,42.7984233 68.4890768,42.6928178 68.4468346,42.5872123 C68.4468346,42.5449701 68.4045924,42.5027279 68.3834713,42.4604857 Z" id="Path" transform="translate(61.255099, 42.926436) scale(-1, 1) translate(-61.255099, -42.926436) "></path>
            </g>
        </g>
    </g>
</svg>