<?xml version="1.0" encoding="UTF-8"?>
<svg width="15px" height="14px" viewBox="0 0 15 14" version="1.1" xmlns="http://www.w3.org/2000/svg" xmlns:xlink="http://www.w3.org/1999/xlink">
    <!-- Generator: Sketch 53.2 (72643) - https://sketchapp.com -->
    <title>Path</title>
    <desc>Created with Sketch.</desc>
    <g id="Page-1" stroke="none" stroke-width="1" fill="none" fill-rule="evenodd" opacity="0.900000036">
        <g id="08SignUp-Recruiter" transform="translate(-880.000000, -1305.000000)" fill="#ADB3FC">
            <g id="Group-20" transform="translate(513.000000, 1270.000000)">
                <g id="Group-8" transform="translate(219.000000, 0.000000)">
                    <path d="M162.383471,41.4604857 C162.36235,41.4393646 162.341229,41.3971224 162.298987,41.3548802 L156.173867,35.2297602 C155.878171,34.9340648 155.329023,34.9129437 155.033327,35.2297602 C154.88548,35.377608 154.800995,35.588819 154.800995,35.80003 C154.800995,36.0112411 154.88548,36.2224521 155.033327,36.3702998 L159.785576,41.122548 L148.802602,41.122548 C148.359059,41.122548 148,41.4816068 148,41.9251499 C148,42.3686931 148.359059,42.7277519 148.802602,42.7277519 L159.764454,42.7277519 L155.012206,47.4800001 C154.69539,47.7968166 154.69539,48.3037231 155.012206,48.6205397 C155.160054,48.7683874 155.371265,48.8528718 155.582476,48.8528718 C155.793687,48.8528718 156.004898,48.7683874 156.152746,48.6205397 L162.277866,42.4954197 C162.320108,42.4531775 162.36235,42.4109353 162.36235,42.3686931 C162.383471,42.347572 162.425713,42.2842087 162.446835,42.2208454 C162.489077,42.1152399 162.510198,42.0096344 162.510198,41.9040288 C162.510198,41.7984233 162.489077,41.6928178 162.446835,41.5872123 C162.446835,41.5449701 162.404592,41.5027279 162.383471,41.4604857 Z" id="Path"></path>
                </g>
            </g>
        </g>
    </g>
</svg>