<?xml version="1.0" encoding="UTF-8"?>
<svg width="7px" height="9px" viewBox="0 0 7 9" version="1.1" xmlns="http://www.w3.org/2000/svg" xmlns:xlink="http://www.w3.org/1999/xlink">
    <!-- Generator: Sketch 53.2 (72643) - https://sketchapp.com -->
    <title>Combined Shape</title>
    <desc>Created with Sketch.</desc>
    <g id="Page-1" stroke="none" stroke-width="1" fill="none" fill-rule="evenodd">
        <g id="01-PJ-Search" transform="translate(-855.000000, -690.000000)" fill="#697585" fill-rule="nonzero">
            <g id="Stacked-Group" transform="translate(140.000000, 483.000000)">
                <g id="Search-list-1-Copy-6" transform="translate(2.000000, 129.000000)">
                    <g id="Location" transform="translate(713.000000, 72.000000)">
                        <path d="M4.192261,14.5924389 C4.1282729,14.6819249 4.04995807,14.7602397 3.96047203,14.8242277 C3.51120381,15.1454821 2.88657177,15.0417065 2.56531733,14.5924382 L2.56535454,14.5924116 C0.85511818,12.2006787 -4.4408921e-16,10.462814 -4.4408921e-16,9.37881752 C-4.4408921e-16,7.51274813 1.51274813,6 3.37881752,6 C5.24488691,6 6.75763505,7.51274813 6.75763505,9.37881752 C6.75763505,10.4628181 5.90251037,12.2006919 4.192261,14.5924389 Z M3.33750753,10.5968593 C3.95953066,10.5968593 4.46378004,10.0926099 4.46378004,9.4705868 C4.46378004,8.84856367 3.95953066,8.34431429 3.33750753,8.34431429 C2.7154844,8.34431429 2.21123502,8.84856367 2.21123502,9.4705868 C2.21123502,10.0926099 2.7154844,10.5968593 3.33750753,10.5968593 Z" id="Combined-Shape"></path>
                    </g>
                </g>
            </g>
        </g>
    </g>
</svg>