<?xml version="1.0" encoding="UTF-8"?>
<svg width="9px" height="14px" viewBox="0 0 9 14" version="1.1" xmlns="http://www.w3.org/2000/svg" xmlns:xlink="http://www.w3.org/1999/xlink">
    <!-- Generator: Sketch 53.2 (72643) - https://sketchapp.com -->
    <title>Combined Shape</title>
    <desc>Created with Sketch.</desc>
    <g id="Page-1" stroke="none" stroke-width="1" fill="none" fill-rule="evenodd">
        <g id="02-PJ-JobInfo" transform="translate(-492.000000, -303.000000)" fill="#D3DAE0" fill-rule="nonzero">
            <path d="M497.330739,315.788376 C497.258131,315.896729 497.165028,315.989832 497.056675,316.06244 C496.597855,316.369899 495.976663,316.247196 495.669204,315.788376 L495.669243,315.788349 C493.223081,312.137947 492,309.501621 492,307.879371 C492,305.184569 494.014719,303 496.5,303 C498.985281,303 501,305.184569 501,307.879371 C501,309.501625 499.776913,312.13796 497.330739,315.788376 Z M496.444982,309.638353 C497.273409,309.638353 497.944982,308.910164 497.944982,308.011896 C497.944982,307.113629 497.273409,306.385439 496.444982,306.385439 C495.616555,306.385439 494.944982,307.113629 494.944982,308.011896 C494.944982,308.910164 495.616555,309.638353 496.444982,309.638353 Z" id="Combined-Shape"></path>
        </g>
    </g>
</svg>