<?xml version="1.0" encoding="UTF-8"?>
<svg width="11px" height="15px" viewBox="0 0 11 15" version="1.1" xmlns="http://www.w3.org/2000/svg" xmlns:xlink="http://www.w3.org/1999/xlink">
    <!-- Generator: Sketch 53.2 (72643) - https://sketchapp.com -->
    <title>Combined Shape</title>
    <desc>Created with Sketch.</desc>
    <g id="Page-1" stroke="none" stroke-width="1" fill="none" fill-rule="evenodd" opacity="0.444800967">
        <g id="01-PJ-Search" transform="translate(-1253.000000, -700.000000)" fill="#697585" fill-rule="nonzero">
            <g id="Stacked-Group-2" transform="translate(1031.000000, 485.000000)">
                <g id="Group-8" transform="translate(0.000000, 148.000000)">
                    <g id="Group-4" transform="translate(0.000000, 42.000000)">
                        <path d="M228.245969,39.5279911 C228.185735,39.6100938 228.113314,39.6825149 228.031211,39.7427489 C227.585919,40.0694338 226.960108,39.9732835 226.633423,39.5279912 L226.63341,39.5280011 C223.54447,35.3175799 222,32.2881414 222,30.4396857 C222,27.4354303 224.43543,25 227.439686,25 C230.443941,25 232.879371,27.4354303 232.879371,30.4396857 C232.879371,32.28814 231.334904,35.3175751 228.245969,39.5279911 Z M227.373179,32.4006571 C228.374598,32.4006571 229.186408,31.588847 229.186408,30.5874286 C229.186408,29.5860101 228.374598,28.7742 227.373179,28.7742 C226.371761,28.7742 225.559951,29.5860101 225.559951,30.5874286 C225.559951,31.588847 226.371761,32.4006571 227.373179,32.4006571 Z" id="Combined-Shape"></path>
                    </g>
                </g>
            </g>
        </g>
    </g>
</svg>