<?xml version="1.0" encoding="UTF-8"?>
<svg width="17px" height="15px" viewBox="0 0 17 15" version="1.1" xmlns="http://www.w3.org/2000/svg" xmlns:xlink="http://www.w3.org/1999/xlink">
    <!-- Generator: Sketch 53.2 (72643) - https://sketchapp.com -->
    <title>Path</title>
    <desc>Created with Sketch.</desc>
    <g id="Page-1" stroke="none" stroke-width="1" fill="none" fill-rule="evenodd">
        <g id="02-PJ-JobInfo" transform="translate(-625.000000, -304.000000)" fill="#D3DAE0">
            <path d="M640.241065,317.287947 C639.623277,317.683958 638.980458,317.812426 638.320573,317.713423 C637.662963,317.619135 636.992839,317.34452 636.340918,317.003903 C636.014389,316.829469 635.688997,316.646785 635.369295,316.441708 C635.039352,316.243702 634.751506,316.043339 634.381743,315.799368 C634.234975,315.709794 634.082519,315.624934 633.931201,315.541253 C633.868625,314.841162 633.779882,313.732094 633.790122,313.13572 C633.803775,312.449772 633.849284,311.760288 633.939165,311.077875 C634.029046,310.396641 634.164436,309.718943 634.371503,309.061281 C634.463659,308.776059 634.571744,308.495551 634.694619,308.222114 C634.750368,308.207971 634.802704,308.196185 634.856177,308.18322 C634.870968,308.186756 634.881207,308.187935 634.895998,308.191471 C634.891447,308.185578 634.886896,308.182042 634.883483,308.176149 C634.917615,308.169077 634.952884,308.159648 634.985879,308.151398 C635.112167,308.240972 635.229354,308.330546 635.323785,308.430727 C635.46714,308.578053 635.562709,308.740701 635.619596,308.923385 C635.67762,309.10489 635.695824,309.311146 635.694686,309.532723 C635.695824,309.754301 635.671931,309.986487 635.668518,310.242244 C635.839178,310.058381 635.959778,309.834446 636.030317,309.586939 C636.098581,309.340611 636.114509,309.056567 636.029179,308.785488 C635.947263,308.514408 635.75271,308.277509 635.522889,308.149041 C635.473966,308.121933 635.422768,308.099539 635.37157,308.078324 C635.619596,308.038252 635.85852,308.015858 636.087204,308.017037 C636.533195,308.017037 636.92685,308.114861 637.289787,308.306974 C637.652724,308.499087 637.992906,308.789024 638.323986,309.134355 C638.658479,309.479686 638.972494,309.878055 639.349083,310.282316 C639.336568,309.7213 639.188663,309.18032 638.925847,308.678235 C638.661893,308.182042 638.261411,307.715314 637.718712,307.430092 C637.180565,307.138976 636.524093,307.08476 635.972293,307.254479 C635.510373,307.394733 635.108754,307.661098 634.810668,308.017037 C634.803842,308.017037 634.797015,308.017037 634.791326,308.018216 C634.79474,308.020573 634.798153,308.02293 634.802704,308.025287 C634.795877,308.033537 634.790189,308.041788 634.783362,308.048859 C634.781087,308.046502 634.778811,308.042966 634.776536,308.040609 C634.793602,308.00643 634.812943,307.97225 634.831147,307.939249 C635.196359,307.563274 635.551332,307.247408 635.919957,307.019937 C636.301098,306.781859 636.687927,306.654569 637.092959,306.625104 C637.49913,306.595639 637.934882,306.660462 638.39225,306.779501 C638.849619,306.896183 639.318364,307.069438 639.842859,307.21205 C639.5516,306.73825 639.155669,306.354025 638.680096,306.065267 C638.205662,305.782401 637.629969,305.59736 637.024695,305.644504 C636.419422,305.683398 635.830076,305.988657 635.440972,306.429456 C635.318097,306.56971 635.21115,306.72175 635.118993,306.879683 C635.128095,306.785394 635.14061,306.691106 635.139473,306.59446 C635.137197,305.998086 634.89486,305.361639 634.471624,304.913769 C634.0518,304.458828 633.503413,304.197177 632.969817,304.078138 C632.429394,303.962635 631.887833,303.973242 631.364476,304.122925 C631.846875,304.379861 632.306519,304.576688 632.721791,304.808873 C633.137063,305.036344 633.504551,305.289744 633.786709,305.595003 C634.070004,305.899083 634.273658,306.260915 634.40336,306.702892 C634.508031,307.055295 634.567193,307.446592 634.59905,307.874426 C634.514857,307.43952 634.306652,307.027009 634.005153,306.676963 C633.6206,306.232629 633.03353,305.921477 632.429394,305.87669 C631.822982,305.82601 631.246152,306.005158 630.769442,306.284487 C630.291594,306.568531 629.89225,306.948042 629.59644,307.419484 C630.122072,307.280409 630.591956,307.111868 631.0516,306.999901 C631.50783,306.884397 631.94472,306.82311 632.352028,306.857289 C632.757061,306.89029 633.141614,307.021116 633.521617,307.26273 C633.719582,307.387662 633.912997,307.538523 634.105274,307.708242 C633.90162,307.685849 633.68545,307.723564 633.498862,307.824924 C633.253112,307.953392 633.071075,308.165541 632.952751,308.391834 C632.833289,308.618126 632.766162,308.864454 632.760474,309.119033 C632.929996,308.935171 633.07335,308.754844 633.225806,308.598089 C633.375987,308.441335 633.530719,308.309331 633.694552,308.223293 C633.859523,308.136076 634.038148,308.091289 634.239526,308.091289 C634.321443,308.091289 634.407911,308.100718 634.496654,308.112504 C634.321443,308.362368 634.157609,308.624019 634.010842,308.893919 C633.668384,309.525652 633.397604,310.197457 633.170058,310.884584 C632.943649,311.571711 632.761612,312.274159 632.611431,312.986037 C632.513586,313.464551 632.473765,314.222394 632.43622,314.898914 C632.295141,314.855305 632.154062,314.80934 632.010708,314.772803 C631.172199,314.563011 630.300696,314.499366 629.453085,314.584226 C628.605475,314.669086 627.785169,314.897735 627.029715,315.247781 C626.279949,315.607255 625.568866,316.049232 625,316.649143 C626.499532,316.066911 628.025231,315.789939 629.48608,315.868906 C630.949204,315.944337 632.328135,316.419314 633.561438,317.199551 C633.860661,317.390485 634.231562,317.636814 634.58881,317.844248 C634.951747,318.049326 635.323785,318.244974 635.714028,318.414693 C636.492237,318.745881 637.344398,319.015782 638.267099,318.999282 C638.725606,318.989853 639.196627,318.895564 639.624414,318.70463 C640.05334,318.516053 640.428791,318.230831 640.731428,317.907893 C641.329876,317.249053 641.701914,316.49946 642,315.725116 C641.414068,316.300275 640.866818,316.906078 640.241065,317.287947 Z" id="Path"></path>
        </g>
    </g>
</svg>