<?xml version="1.0" encoding="UTF-8"?>
<svg width="21px" height="21px" viewBox="0 0 21 21" version="1.1" xmlns="http://www.w3.org/2000/svg" xmlns:xlink="http://www.w3.org/1999/xlink">
    <!-- Generator: Sketch 53.2 (72643) - https://sketchapp.com -->
    <title>Combined Shape</title>
    <desc>Created with Sketch.</desc>
    <g id="Page-1" stroke="none" stroke-width="1" fill="none" fill-rule="evenodd">
        <g id="08SignUp-Recruiter" transform="translate(-409.000000, -403.000000)" fill="#25DE8C">
            <g id="Group-21" transform="translate(379.000000, 225.000000)">
                <g id="Group-3" transform="translate(3.000000, 144.000000)">
                    <g id="Rectangle-+-Recruiter-Mask-Copy">
                        <g id="Group-19" transform="translate(27.428167, 34.000000)">
                            <path d="M10.3221936,5.53580524 C9.3450599,5.53580524 8.56335292,5.03255022 8.56335292,4.40348144 C8.56335292,4.25250493 8.71969431,4.15185393 8.95420641,4.15185393 C9.1887185,4.15185393 9.3450599,4.25250493 9.3450599,4.40348144 C9.3450599,4.75575995 9.77499874,5.03255022 10.3221936,5.03255022 C10.8693885,5.03255022 11.2993273,4.75575995 11.2993273,4.40348144 C11.2993273,4.25250493 11.4556687,4.15185393 11.6901808,4.15185393 C11.9246929,4.15185393 12.0810343,4.25250493 12.0810343,4.40348144 C12.0810343,5.03255022 11.2993273,5.53580524 10.3221936,5.53580524 Z M20.0779992,12.4434749 C20.3007344,12.4434749 20.5234697,12.6187351 20.5234697,12.8816254 C20.5234697,13.1445157 20.3007344,13.3197759 20.0779992,13.3197759 L18.5633992,13.3197759 L18.5633992,18.7528424 C18.5633992,19.4976983 17.9842875,20.067294 17.2269875,20.067294 L3.41739976,20.067294 C2.70464684,20.067294 2.08098804,19.4976983 2.08098804,18.7528424 L2.08098804,13.3197759 L0.566388094,13.3197759 C0.343652808,13.3197759 0.120917522,13.1445157 0.120917522,12.8816254 C0.120917522,12.6187351 0.343652808,12.4434749 0.566388094,12.4434749 L5.02109382,12.4434749 L5.02109382,8.50012016 C5.02109382,7.79907932 5.60020556,7.18566859 6.35750553,7.18566859 L7.78301136,7.18566859 C6.84752316,6.4408127 6.22386436,5.30162134 6.22386436,4.03098482 C6.22386436,1.79641715 8.05029371,0 10.3221936,0 C12.5940935,0 14.4205229,1.79641715 14.4205229,4.03098482 C14.4205229,5.30162134 13.7968641,6.4408127 12.8613759,7.18566859 L14.2868817,7.18566859 C15.0441817,7.18566859 15.6232934,7.79907932 15.6232934,8.50012016 L15.6232934,12.4434749 L20.0779992,12.4434749 Z M7.1148055,4.03098482 C7.1148055,5.78358691 8.54031133,7.18566859 10.3221936,7.18566859 C12.1040759,7.18566859 13.5295817,5.78358691 13.5295817,4.03098482 C13.5295817,2.27838272 12.1040759,0.876301047 10.3221936,0.876301047 C8.54031133,0.876301047 7.1148055,2.27838272 7.1148055,4.03098482 Z M5.91203496,8.50012016 L5.91203496,12.4434749 L9.87672305,12.4434749 L9.87672305,10.2527223 C9.87672305,9.98983194 10.0994583,9.81457173 10.3221936,9.81457173 C10.589476,9.81457173 10.7676642,9.98983194 10.7676642,10.2527223 L10.7676642,12.4434749 L14.7323523,12.4434749 L14.7323523,8.50012016 C14.7323523,8.23722985 14.5541641,8.06196964 14.2868817,8.06196964 L6.35750553,8.06196964 C6.09022319,8.06196964 5.91203496,8.23722985 5.91203496,8.50012016 Z M17.6724581,18.7528424 L17.6724581,15.6857887 L2.97192918,15.6857887 L2.97192918,18.7528424 C2.97192918,19.0157327 3.19466447,19.1909929 3.41739976,19.1909929 L17.2269875,19.1909929 C17.4942698,19.1909929 17.6724581,19.0157327 17.6724581,18.7528424 Z M17.6724581,14.8533028 L17.6724581,13.363591 L2.97192918,13.363591 L2.97192918,14.8533028 L17.6724581,14.8533028 Z" id="Combined-Shape"></path>
                        </g>
                    </g>
                </g>
            </g>
        </g>
    </g>
</svg>