<?xml version="1.0" encoding="UTF-8"?>
<svg width="18px" height="19px" viewBox="0 0 18 19" version="1.1" xmlns="http://www.w3.org/2000/svg" xmlns:xlink="http://www.w3.org/1999/xlink">
    <!-- Generator: Sketch 53.2 (72643) - https://sketchapp.com -->
    <title></title>
    <desc>Created with Sketch.</desc>
    <g id="Page-1" stroke="none" stroke-width="1" fill="none" fill-rule="evenodd">
        <g id="02-PJ-JobInfo" transform="translate(-1195.000000, -702.000000)" fill="#2E3D4E">
            <g id="Group" transform="translate(1182.000000, 690.000000)">
                <path d="M30.2030846,16.5781546 C30.5676668,16.9427369 30.7499583,17.3854446 30.7499583,17.9062764 L30.7499583,28.3750015 C30.7499583,28.8958334 30.5676668,29.3385411 30.2030846,29.7031233 C29.8385023,30.0677056 29.3957946,30.249997 28.8749627,30.249997 L15.1249955,30.249997 C14.6041636,30.249997 14.161456,30.0677056 13.7968737,29.7031233 C13.4322914,29.3385411 13.25,28.8958334 13.25,28.3750015 L13.25,14.6250343 C13.25,14.1042024 13.4322914,13.6614947 13.7968737,13.2969124 C14.161456,12.9323302 14.6041636,12.7500387 15.1249955,12.7500387 L25.5937206,12.7500387 C26.1145525,12.7500387 26.5572601,12.9323302 26.9218424,13.2969124 L30.2030846,16.5781546 Z M23.8749747,14.6250343 L18.8749866,14.6250343 L18.8749866,17.7500268 L23.8749747,17.7500268 L23.8749747,14.6250343 Z M21.9999791,20.5625201 C22.9374769,20.5625201 23.7447668,20.9010612 24.4218484,21.5781427 C25.0989299,22.2552242 25.4374709,23.0625142 25.4374709,24.0000119 C25.4374709,24.9375097 25.0989299,25.7447996 24.4218484,26.4218811 C23.7447668,27.0989627 22.9374769,27.4375037 21.9999791,27.4375037 C21.0624814,27.4375037 20.2551914,27.0989627 19.5781099,26.4218811 C18.9010284,25.7447996 18.5624873,24.9375097 18.5624873,24.0000119 C18.5624873,23.0625142 18.9010284,22.2552242 19.5781099,21.5781427 C20.2551914,20.9010612 21.0624814,20.5625201 21.9999791,20.5625201 Z M21.9999791,25.5625082 C22.4426862,25.5625082 22.8137791,25.4127692 23.1132577,25.1132905 C23.4127364,24.8138119 23.5624754,24.442719 23.5624754,24.0000119 C23.5624754,23.5573048 23.4127364,23.186212 23.1132577,22.8867333 C22.8137791,22.5872547 22.4426862,22.4375156 21.9999791,22.4375156 C21.5572721,22.4375156 21.1861792,22.5872547 20.8867005,22.8867333 C20.5872219,23.186212 20.4374829,23.5573048 20.4374829,24.0000119 C20.4374829,24.442719 20.5872219,24.8138119 20.8867005,25.1132905 C21.1861792,25.4127692 21.5572721,25.5625082 21.9999791,25.5625082 Z" id=""></path>
            </g>
        </g>
    </g>
</svg>