<?xml version="1.0" encoding="UTF-8"?>
<svg width="23px" height="24px" viewBox="0 0 23 24" version="1.1" xmlns="http://www.w3.org/2000/svg" xmlns:xlink="http://www.w3.org/1999/xlink">
    <!-- Generator: Sketch 53.2 (72643) - https://sketchapp.com -->
    <title>Combined Shape</title>
    <desc>Created with Sketch.</desc>
    <g id="Page-1" stroke="none" stroke-width="1" fill="none" fill-rule="evenodd" opacity="0.299130394">
        <g id="01-PJ-Search" transform="translate(-954.000000, -269.000000)" fill="#888888" fill-rule="nonzero" stroke="#878787">
            <g id="Group-12" transform="translate(445.000000, 184.000000)">
                <g id="Group-11" transform="translate(0.000000, 65.000000)">
                    <path d="M526.016947,36.5564718 L531.382173,41.9216982 L530.321513,42.9823583 L524.9077,37.5685453 C523.3437,38.7793859 521.381004,39.5 519.25,39.5 C514.141366,39.5 510,35.3586339 510,30.25 C510,25.1413661 514.141366,21 519.25,21 C524.358634,21 528.5,25.1413661 528.5,30.25 C528.5,32.6871872 527.557434,34.9042264 526.016947,36.5564718 Z M519.25,38 C523.530207,38 527,34.5302068 527,30.25 C527,25.9697932 523.530207,22.5 519.25,22.5 C514.969793,22.5 511.5,25.9697932 511.5,30.25 C511.5,34.5302068 514.969793,38 519.25,38 Z" id="Combined-Shape"></path>
                </g>
            </g>
        </g>
    </g>
</svg>