<?xml version="1.0" encoding="UTF-8"?>
<svg width="18px" height="19px" viewBox="0 0 18 19" version="1.1" xmlns="http://www.w3.org/2000/svg" xmlns:xlink="http://www.w3.org/1999/xlink">
    <!-- Generator: Sketch 53.2 (72643) - https://sketchapp.com -->
    <title></title>
    <desc>Created with Sketch.</desc>
    <g id="Page-1" stroke="none" stroke-width="1" fill="none" fill-rule="evenodd">
        <g id="02-PJ-JobInfo" transform="translate(-1084.000000, -702.000000)" fill="#2E3D4E">
            <g id="Group-2" transform="translate(1072.000000, 690.000000)">
                <path d="M27.875,12.75 C28.3958359,12.75 28.8385398,12.9322898 29.203125,13.296875 C29.5677102,13.6614602 29.75,14.1041641 29.75,14.625 L29.75,28.375 C29.75,28.8958359 29.5677102,29.3385398 29.203125,29.703125 C28.8385398,30.0677102 28.3958359,30.25 27.875,30.25 L14.125,30.25 C13.6041641,30.25 13.1614602,30.0677102 12.796875,29.703125 C12.4322898,29.3385398 12.25,28.8958359 12.25,28.375 L12.25,14.625 C12.25,14.1041641 12.4322898,13.6614602 12.796875,13.296875 C13.1614602,12.9322898 13.6041641,12.75 14.125,12.75 L27.875,12.75 Z M25.9609375,18.9609375 C26.4557316,18.5963523 26.8854148,18.1536484 27.25,17.6328125 C26.7552059,17.8411469 26.2604191,17.9713539 25.765625,18.0234375 C26.3125027,17.6848941 26.6901031,17.2161488 26.8984375,16.6171875 C26.3776016,16.9296891 25.830732,17.1380203 25.2578125,17.2421875 C24.7630184,16.6953098 24.1510453,16.421875 23.421875,16.421875 C22.6145793,16.421875 21.9505234,16.7343719 21.4296875,17.359375 C20.9088516,17.9843781 20.7395824,18.7265582 20.921875,19.5859375 C18.7604059,19.4557285 16.9895902,18.5573 15.609375,16.890625 C15.3749988,17.281252 15.2578125,17.7109352 15.2578125,18.1796875 C15.2578125,18.4401055 15.3098953,18.7070299 15.4140625,18.9804688 C15.5182297,19.2539076 15.6614574,19.5078113 15.84375,19.7421875 C16.0260426,19.9765637 16.2213531,20.1718742 16.4296875,20.328125 C16.0130188,20.3020832 15.6223977,20.1848969 15.2578125,19.9765625 L15.2578125,20.015625 C15.2578125,20.6406281 15.453123,21.1874977 15.84375,21.65625 C16.234377,22.1250023 16.7291637,22.4244785 17.328125,22.5546875 C16.9635398,22.6328129 16.5729187,22.6458336 16.15625,22.59375 C16.3125008,23.1145859 16.611977,23.5377588 17.0546875,23.8632812 C17.497398,24.1888037 17.9921848,24.3515625 18.5390625,24.3515625 C17.6015578,25.0807328 16.5468809,25.4453125 15.375,25.4453125 C15.1406238,25.4453125 14.9322926,25.4322918 14.75,25.40625 C15.9479227,26.1875039 17.2630137,26.578125 18.6953125,26.578125 C20.1796949,26.578125 21.4947859,26.2005246 22.640625,25.4453125 C23.7864641,24.6901004 24.6262994,23.7656305 25.1601562,22.671875 C25.6940131,21.5781195 25.9609375,20.4453184 25.9609375,19.2734375 C25.9609375,19.1432285 25.9609375,19.0390629 25.9609375,18.9609375 Z" id=""></path>
            </g>
        </g>
    </g>
</svg>