<?xml version="1.0" encoding="UTF-8"?>
<svg width="58px" height="53px" viewBox="0 0 58 53" version="1.1" xmlns="http://www.w3.org/2000/svg" xmlns:xlink="http://www.w3.org/1999/xlink">
    <!-- Generator: Sketch 53.2 (72643) - https://sketchapp.com -->
    <title>Combined Shape</title>
    <desc>Created with Sketch.</desc>
    <defs>
        <filter x="-18.1%" y="-18.2%" width="136.3%" height="136.4%" filterUnits="objectBoundingBox" id="filter-1">
            <feOffset dx="0" dy="9" in="SourceAlpha" result="shadowOffsetOuter1"></feOffset>
            <feGaussianBlur stdDeviation="6.5" in="shadowOffsetOuter1" result="shadowBlurOuter1"></feGaussianBlur>
            <feColorMatrix values="0 0 0 0 0   0 0 0 0 0   0 0 0 0 0  0 0 0 0.0627830616 0" type="matrix" in="shadowBlurOuter1" result="shadowMatrixOuter1"></feColorMatrix>
            <feMerge>
                <feMergeNode in="shadowMatrixOuter1"></feMergeNode>
                <feMergeNode in="SourceGraphic"></feMergeNode>
            </feMerge>
        </filter>
    </defs>
    <g id="Page-1" stroke="none" stroke-width="1" fill="none" fill-rule="evenodd" opacity="0.773763021">
        <g id="03SignUp-Exp" transform="translate(-878.000000, -319.000000)" fill="#D3DAE0">
            <g id="Group-21" transform="translate(378.000000, 225.000000)">
                <g id="Group-12" filter="url(#filter-1)" transform="translate(409.000000, 0.000000)">
                    <path d="M117.131579,106.484848 C118.999218,106.484848 120.5,108.030603 120.5,109.878788 C120.5,111.760576 118.999218,113.272727 117.131579,113.272727 C115.26394,113.272727 113.763158,111.760576 113.763158,109.878788 C113.763158,107.997 115.26394,106.484848 117.131579,106.484848 Z M129.965263,113.002387 C133.569474,113.002387 136.5,115.942721 136.5,119.5179 C136.5,123.093079 133.569474,126 129.965263,126 C126.361053,126 123.430526,123.093079 123.430526,119.5179 L107.632632,119.5179 C105.881053,119.5179 104.5,118.114558 104.5,116.410501 L104.5,104.415274 C104.5,102.711217 105.914737,101.307876 107.632632,101.307876 L111.573684,101.307876 L112.786316,98.902148 C113.055789,98.3341289 113.628421,98 114.234737,98 L120.264211,98 C120.870526,98 121.443158,98.3675418 121.712632,98.902148 L122.891579,101.307876 L126.832632,101.307876 C128.584211,101.307876 129.965263,102.711217 129.965263,104.415274 L129.965263,113.002387 Z M117.232632,115.809069 C120.398947,115.809069 122.992632,113.26969 122.992632,110.095465 C122.992632,106.921241 120.398947,104.381862 117.232632,104.381862 C114.032632,104.381862 111.472632,106.954654 111.472632,110.095465 C111.472632,113.26969 114.066316,115.809069 117.232632,115.809069 Z M129.965263,124.229117 C132.592632,124.229117 134.748421,122.090692 134.748421,119.484487 C134.748421,116.878282 132.592632,114.739857 129.965263,114.739857 C127.337895,114.739857 125.182105,116.878282 125.182105,119.484487 C125.182105,122.090692 127.337895,124.229117 129.965263,124.229117 Z M130.332758,116.879069 L132.02362,118.32655 C132.355161,118.64122 132.388316,119.144692 132.056774,119.490829 C131.891003,119.648164 131.658924,119.742565 131.426845,119.742565 C131.194766,119.742565 130.995841,119.679631 130.830071,119.522296 L130.631146,119.364961 L130.631146,121.787919 C130.631146,122.228457 130.233296,122.606061 129.769138,122.606061 C129.30498,122.606061 128.90713,122.228457 128.90713,121.787919 L128.90713,119.364961 L128.708205,119.522296 C128.34351,119.836966 127.813043,119.836966 127.481502,119.490829 C127.149961,119.144692 127.149961,118.64122 127.514656,118.32655 L129.139209,116.879069 C129.470751,116.595866 130.001217,116.595866 130.332758,116.879069 Z" id="Combined-Shape"></path>
                </g>
            </g>
        </g>
    </g>
</svg>