<?xml version="1.0" encoding="UTF-8"?>
<svg width="21px" height="27px" viewBox="0 0 21 27" version="1.1" xmlns="http://www.w3.org/2000/svg" xmlns:xlink="http://www.w3.org/1999/xlink">
    <!-- Generator: Sketch 53.2 (72643) - https://sketchapp.com -->
    <title>Shape</title>
    <desc>Created with Sketch.</desc>
    <g id="Page-1" stroke="none" stroke-width="1" fill="none" fill-rule="evenodd">
        <g id="04SignUp-Fresh" transform="translate(-609.000000, -1118.000000)" fill="#C4CED7">
            <g id="Group-7" transform="translate(378.000000, 1061.000000)">
                <g id="Group-17" transform="translate(231.000000, 57.000000)">
                    <path d="M16.2857143,5.52674893 C16.2857143,5.05424901 16.0143795,4.39987736 15.6798237,4.06532156 L12.2203927,0.605890543 C11.8857686,0.271266429 11.2280669,0 10.7604601,0 L1.71375981,0 C0.7672764,0 0,0.767124729 0,1.71171827 L0,20.573996 C0,21.5193519 0.763650343,22.2857143 1.71207591,22.2857143 L5.84146603,22.2857143 C5.69942276,21.7338374 5.61096081,21.1604501 5.58195643,20.5714286 L2.56783586,20.5714286 C2.09643313,20.5714286 1.714614,20.1861977 1.71501797,19.7121595 L1.7296239,2.57319943 C1.7300283,2.09863826 2.11638437,1.7138511 2.59177311,1.71375347 L9.8528688,1.71226239 C10.3286162,1.71216471 10.7142857,2.09624357 10.7142857,2.5685988 L10.7142857,3.85618929 C10.7142857,4.80348977 11.4809467,5.57142857 12.4276231,5.57142857 L13.7335732,5.57142857 C14.2092051,5.57142857 14.5941801,5.95729093 14.5934415,6.43176909 L14.5854225,11.5826568 C15.1695323,11.6123656 15.7382088,11.7005479 16.2857143,11.841466 L16.2857143,5.52674893 Z M5.14285714,15.8571429 C4.66947021,15.8571429 4.28571429,16.2408988 4.28571429,16.7142857 C4.28571429,17.1876726 4.66947021,17.5714286 5.14285714,17.5714286 L5.96383054,17.5714286 C6.15317571,16.9685756 6.40733237,16.3944242 6.71813447,15.8571405 L5.14285714,15.8571429 Z M9.42857143,12.4285714 L5.14285714,12.4285714 C4.66947021,12.4285714 4.28571429,12.8123274 4.28571429,13.2857143 C4.28571429,13.7591012 4.66947021,14.1428571 5.14285714,14.1428571 L8.02162903,14.1428571 C8.60064609,13.5522149 9.26446946,13.0450173 9.99339103,12.6409722 C9.84255973,12.5087314 9.64492676,12.4285714 9.42857143,12.4285714 Z M12,9 L5.14285714,9 C4.66947021,9 4.28571429,9.38375593 4.28571429,9.85714286 C4.28571429,10.3305298 4.66947021,10.7142857 5.14285714,10.7142857 L12,10.7142857 C12.4733869,10.7142857 12.8571429,10.3305298 12.8571429,9.85714286 C12.8571429,9.38375593 12.4733869,9 12,9 Z M8.14285714,6.42857143 C8.14285714,5.9551845 7.75910121,5.57142857 7.28571429,5.57142857 L5.14285714,5.57142857 C4.66947021,5.57142857 4.28571429,5.9551845 4.28571429,6.42857143 C4.28571429,6.90195836 4.66947021,7.28571429 5.14285714,7.28571429 L7.28571429,7.28571429 C7.75910121,7.28571429 8.14285714,6.90195836 8.14285714,6.42857143 Z M7.28571429,20.1428571 C7.28571429,16.3557617 10.3557617,13.2857143 14.1428571,13.2857143 C17.9299526,13.2857143 21,16.3557617 21,20.1428571 C21,23.9299526 17.9299526,27 14.1428571,27 C10.3557617,27 7.28571429,23.9299526 7.28571429,20.1428571 Z M19.2857143,20.1428571 C19.2857143,17.3025356 16.9831787,15 14.1428571,15 C11.3025356,15 9,17.3025356 9,20.1428571 C9,22.9831787 11.3025356,25.2857143 14.1428571,25.2857143 C16.9831787,25.2857143 19.2857143,22.9831787 19.2857143,20.1428571 Z M17.2973368,20.3520938 C17.6337372,20.0158871 17.636444,19.4680561 17.3033825,19.128479 L14.7533291,16.5071437 C14.4190924,16.1663684 13.8740469,16.1649963 13.5381307,16.5040847 L10.945327,19.12542 C10.6105919,19.463316 10.6105919,20.0111539 10.945327,20.34905 C11.2800621,20.6869461 11.822775,20.6869461 12.1575101,20.34905 L13.2857144,19.2061446 L13.2857144,23.0997113 C13.2857144,23.5775685 13.6694703,23.9649483 14.1428573,23.9649483 C14.6162442,23.9649483 15.0000001,23.5775685 15.0000001,23.0997113 L15.0000001,19.2156108 L16.0851688,20.345991 C16.4182303,20.6855681 16.9609364,20.6883004 17.2973368,20.3520938 Z" id="Shape"></path>
                </g>
            </g>
        </g>
    </g>
</svg>