<?xml version="1.0" encoding="UTF-8"?>
<svg width="12px" height="14px" viewBox="0 0 12 14" version="1.1" xmlns="http://www.w3.org/2000/svg" xmlns:xlink="http://www.w3.org/1999/xlink">
    <!-- Generator: Sketch 50.2 (55047) - http://www.bohemiancoding.com/sketch -->
    <title>icon245 - FontAwesome Copy 2</title>
    <desc>Created with Sketch.</desc>
    <defs></defs>
    <g id="Page-1" stroke="none" stroke-width="1" fill="none" fill-rule="evenodd">
        <g id="MED-02InPatient-listView" transform="translate(-458.000000, -368.000000)" fill="#2C3D92">
            <path d="M469.332232,370.933412 C469.617854,371.219033 469.857158,371.790276 469.857158,372.19941 L469.857158,381.092279 C469.857158,381.501413 469.52522,381.833351 469.116086,381.833351 L458.741072,381.833351 C458.331939,381.833351 458,381.501413 458,381.092279 L458,368.741072 C458,368.331939 458.331939,368 458.741072,368 L465.657748,368 C466.066882,368 466.638125,368.239305 466.923747,368.524926 L469.332232,370.933412 Z M465.904772,369.049853 L465.904772,371.952386 L468.807306,371.952386 C468.760989,371.821154 468.691513,371.689923 468.637477,371.635886 L466.221272,369.219682 C466.167235,369.165645 466.036004,369.09617 465.904772,369.049853 Z M468.869062,380.845255 L468.869062,372.940483 L465.657748,372.940483 C465.248614,372.940483 464.916676,372.608544 464.916676,372.19941 L464.916676,368.988097 L458.988097,368.988097 L458.988097,380.845255 L468.869062,380.845255 Z M460.96429,374.175603 C460.96429,374.036652 461.072363,373.928579 461.211314,373.928579 L466.645845,373.928579 C466.784796,373.928579 466.892869,374.036652 466.892869,374.175603 L466.892869,374.669651 C466.892869,374.808603 466.784796,374.916676 466.645845,374.916676 L461.211314,374.916676 C461.072363,374.916676 460.96429,374.808603 460.96429,374.669651 L460.96429,374.175603 Z M466.645845,375.904772 C466.784796,375.904772 466.892869,376.012845 466.892869,376.151796 L466.892869,376.645845 C466.892869,376.784796 466.784796,376.892869 466.645845,376.892869 L461.211314,376.892869 C461.072363,376.892869 460.96429,376.784796 460.96429,376.645845 L460.96429,376.151796 C460.96429,376.012845 461.072363,375.904772 461.211314,375.904772 L466.645845,375.904772 Z M466.645845,377.880965 C466.784796,377.880965 466.892869,377.989038 466.892869,378.127989 L466.892869,378.622038 C466.892869,378.760989 466.784796,378.869062 466.645845,378.869062 L461.211314,378.869062 C461.072363,378.869062 460.96429,378.760989 460.96429,378.622038 L460.96429,378.127989 C460.96429,377.989038 461.072363,377.880965 461.211314,377.880965 L466.645845,377.880965 Z" id="icon245---FontAwesome-Copy-2"></path>
        </g>
    </g>
</svg>