<?xml version="1.0" encoding="UTF-8"?>
<svg width="46px" height="47px" viewBox="0 0 46 47" version="1.1" xmlns="http://www.w3.org/2000/svg" xmlns:xlink="http://www.w3.org/1999/xlink">
    <!-- Generator: Sketch 50.2 (55047) - http://www.bohemiancoding.com/sketch -->
    <title>Group</title>
    <desc>Created with Sketch.</desc>
    <defs></defs>
    <g id="Page-1" stroke="none" stroke-width="1" fill="none" fill-rule="evenodd">
        <g id="MED-00Login-3-FPSuccess" transform="translate(-1268.000000, -658.000000)">
            <g id="Group" transform="translate(1268.000000, 658.000000)">
                <path d="M45.7143164,23.2857015 C45.7143164,35.9047576 35.4762143,46.1428597 22.8571582,46.1428597 C10.2381021,46.1428597 0,35.9047576 0,23.2857015 C0,10.6666454 10.2381021,0.428543329 22.8571582,0.428543329 C35.4762143,0.428543329 45.7143164,10.6666454 45.7143164,23.2857015 Z" id="Patient-name-Copy-3" fill="#24EE9B"></path>
                <path d="M38.2143113,18.4642697 C38.2143113,17.958317 38.0357398,17.4523643 37.6785967,17.0952212 L34.9702615,14.4166479 C34.6131184,14.0595049 34.1369277,13.8511714 33.6309749,13.8511714 C33.1250222,13.8511714 32.6488314,14.0595049 32.2916883,14.4166479 L20.148823,26.5297513 L13.422628,19.8035563 C13.065485,19.4464132 12.5892942,19.2380798 12.0833414,19.2380798 C11.5773887,19.2380798 11.1011979,19.4464132 10.7440548,19.8035563 L8.03571967,22.4821295 C7.67857658,22.8392726 7.50000503,23.3452254 7.50000503,23.8511781 C7.50000503,24.3571308 7.67857658,24.8333216 8.03571967,25.1904647 L18.8095364,35.9642814 C19.1666795,36.3214245 19.6726322,36.529758 20.148823,36.529758 C20.6547758,36.529758 21.1607285,36.3214245 21.5178716,35.9642814 L37.6785967,19.8035563 C38.0357398,19.4464132 38.2143113,18.9702224 38.2143113,18.4642697 Z" id="Path" fill="#1A6949"></path>
            </g>
        </g>
    </g>
</svg>